<svg xmlns="http://www.w3.org/2000/svg" xmlns:xlink="http://www.w3.org/1999/xlink" width="1003" height="11.064" viewBox="0 0 1003 11.064">
  <defs>
    <clipPath id="clip-path">
      <rect width="1003" height="11.064" fill="none"/>
    </clipPath>
  </defs>
  <g id="Repeat_Grid_1" data-name="Repeat Grid 1" clip-path="url(#clip-path)">
    <g transform="translate(-891.686 -620.686)">
      <g id="Rectangle_4" data-name="Rectangle 4" transform="translate(891.686 626.218) rotate(-45)" fill="none" stroke="#8586a5" stroke-width="2" stroke-dasharray="4">
        <rect width="7.823" height="7.823" stroke="none"/>
        <rect x="1" y="1" width="5.823" height="5.823" fill="none"/>
      </g>
    </g>
    <g transform="translate(-869.686 -620.686)">
      <g id="Rectangle_4-2" data-name="Rectangle 4" transform="translate(891.686 626.218) rotate(-45)" fill="none" stroke="#8586a5" stroke-width="2" stroke-dasharray="4">
        <rect width="7.823" height="7.823" stroke="none"/>
        <rect x="1" y="1" width="5.823" height="5.823" fill="none"/>
      </g>
    </g>
    <g transform="translate(-847.686 -620.686)">
      <g id="Rectangle_4-3" data-name="Rectangle 4" transform="translate(891.686 626.218) rotate(-45)" fill="none" stroke="#8586a5" stroke-width="2" stroke-dasharray="4">
        <rect width="7.823" height="7.823" stroke="none"/>
        <rect x="1" y="1" width="5.823" height="5.823" fill="none"/>
      </g>
    </g>
    <g transform="translate(-825.686 -620.686)">
      <g id="Rectangle_4-4" data-name="Rectangle 4" transform="translate(891.686 626.218) rotate(-45)" fill="none" stroke="#8586a5" stroke-width="2" stroke-dasharray="4">
        <rect width="7.823" height="7.823" stroke="none"/>
        <rect x="1" y="1" width="5.823" height="5.823" fill="none"/>
      </g>
    </g>
    <g transform="translate(-803.686 -620.686)">
      <g id="Rectangle_4-5" data-name="Rectangle 4" transform="translate(891.686 626.218) rotate(-45)" fill="none" stroke="#8586a5" stroke-width="2" stroke-dasharray="4">
        <rect width="7.823" height="7.823" stroke="none"/>
        <rect x="1" y="1" width="5.823" height="5.823" fill="none"/>
      </g>
    </g>
    <g transform="translate(-781.686 -620.686)">
      <g id="Rectangle_4-6" data-name="Rectangle 4" transform="translate(891.686 626.218) rotate(-45)" fill="none" stroke="#8586a5" stroke-width="2" stroke-dasharray="4">
        <rect width="7.823" height="7.823" stroke="none"/>
        <rect x="1" y="1" width="5.823" height="5.823" fill="none"/>
      </g>
    </g>
    <g transform="translate(-759.686 -620.686)">
      <g id="Rectangle_4-7" data-name="Rectangle 4" transform="translate(891.686 626.218) rotate(-45)" fill="none" stroke="#8586a5" stroke-width="2" stroke-dasharray="4">
        <rect width="7.823" height="7.823" stroke="none"/>
        <rect x="1" y="1" width="5.823" height="5.823" fill="none"/>
      </g>
    </g>
    <g transform="translate(-737.686 -620.686)">
      <g id="Rectangle_4-8" data-name="Rectangle 4" transform="translate(891.686 626.218) rotate(-45)" fill="none" stroke="#8586a5" stroke-width="2" stroke-dasharray="4">
        <rect width="7.823" height="7.823" stroke="none"/>
        <rect x="1" y="1" width="5.823" height="5.823" fill="none"/>
      </g>
    </g>
    <g transform="translate(-715.686 -620.686)">
      <g id="Rectangle_4-9" data-name="Rectangle 4" transform="translate(891.686 626.218) rotate(-45)" fill="none" stroke="#8586a5" stroke-width="2" stroke-dasharray="4">
        <rect width="7.823" height="7.823" stroke="none"/>
        <rect x="1" y="1" width="5.823" height="5.823" fill="none"/>
      </g>
    </g>
    <g transform="translate(-693.686 -620.686)">
      <g id="Rectangle_4-10" data-name="Rectangle 4" transform="translate(891.686 626.218) rotate(-45)" fill="none" stroke="#8586a5" stroke-width="2" stroke-dasharray="4">
        <rect width="7.823" height="7.823" stroke="none"/>
        <rect x="1" y="1" width="5.823" height="5.823" fill="none"/>
      </g>
    </g>
    <g transform="translate(-671.686 -620.686)">
      <g id="Rectangle_4-11" data-name="Rectangle 4" transform="translate(891.686 626.218) rotate(-45)" fill="none" stroke="#8586a5" stroke-width="2" stroke-dasharray="4">
        <rect width="7.823" height="7.823" stroke="none"/>
        <rect x="1" y="1" width="5.823" height="5.823" fill="none"/>
      </g>
    </g>
    <g transform="translate(-649.686 -620.686)">
      <g id="Rectangle_4-12" data-name="Rectangle 4" transform="translate(891.686 626.218) rotate(-45)" fill="none" stroke="#8586a5" stroke-width="2" stroke-dasharray="4">
        <rect width="7.823" height="7.823" stroke="none"/>
        <rect x="1" y="1" width="5.823" height="5.823" fill="none"/>
      </g>
    </g>
    <g transform="translate(-627.686 -620.686)">
      <g id="Rectangle_4-13" data-name="Rectangle 4" transform="translate(891.686 626.218) rotate(-45)" fill="none" stroke="#8586a5" stroke-width="2" stroke-dasharray="4">
        <rect width="7.823" height="7.823" stroke="none"/>
        <rect x="1" y="1" width="5.823" height="5.823" fill="none"/>
      </g>
    </g>
    <g transform="translate(-605.686 -620.686)">
      <g id="Rectangle_4-14" data-name="Rectangle 4" transform="translate(891.686 626.218) rotate(-45)" fill="none" stroke="#8586a5" stroke-width="2" stroke-dasharray="4">
        <rect width="7.823" height="7.823" stroke="none"/>
        <rect x="1" y="1" width="5.823" height="5.823" fill="none"/>
      </g>
    </g>
    <g transform="translate(-583.686 -620.686)">
      <g id="Rectangle_4-15" data-name="Rectangle 4" transform="translate(891.686 626.218) rotate(-45)" fill="none" stroke="#8586a5" stroke-width="2" stroke-dasharray="4">
        <rect width="7.823" height="7.823" stroke="none"/>
        <rect x="1" y="1" width="5.823" height="5.823" fill="none"/>
      </g>
    </g>
    <g transform="translate(-561.686 -620.686)">
      <g id="Rectangle_4-16" data-name="Rectangle 4" transform="translate(891.686 626.218) rotate(-45)" fill="none" stroke="#8586a5" stroke-width="2" stroke-dasharray="4">
        <rect width="7.823" height="7.823" stroke="none"/>
        <rect x="1" y="1" width="5.823" height="5.823" fill="none"/>
      </g>
    </g>
    <g transform="translate(-539.686 -620.686)">
      <g id="Rectangle_4-17" data-name="Rectangle 4" transform="translate(891.686 626.218) rotate(-45)" fill="none" stroke="#8586a5" stroke-width="2" stroke-dasharray="4">
        <rect width="7.823" height="7.823" stroke="none"/>
        <rect x="1" y="1" width="5.823" height="5.823" fill="none"/>
      </g>
    </g>
    <g transform="translate(-517.686 -620.686)">
      <g id="Rectangle_4-18" data-name="Rectangle 4" transform="translate(891.686 626.218) rotate(-45)" fill="none" stroke="#8586a5" stroke-width="2" stroke-dasharray="4">
        <rect width="7.823" height="7.823" stroke="none"/>
        <rect x="1" y="1" width="5.823" height="5.823" fill="none"/>
      </g>
    </g>
    <g transform="translate(-495.686 -620.686)">
      <g id="Rectangle_4-19" data-name="Rectangle 4" transform="translate(891.686 626.218) rotate(-45)" fill="none" stroke="#8586a5" stroke-width="2" stroke-dasharray="4">
        <rect width="7.823" height="7.823" stroke="none"/>
        <rect x="1" y="1" width="5.823" height="5.823" fill="none"/>
      </g>
    </g>
    <g transform="translate(-473.686 -620.686)">
      <g id="Rectangle_4-20" data-name="Rectangle 4" transform="translate(891.686 626.218) rotate(-45)" fill="none" stroke="#8586a5" stroke-width="2" stroke-dasharray="4">
        <rect width="7.823" height="7.823" stroke="none"/>
        <rect x="1" y="1" width="5.823" height="5.823" fill="none"/>
      </g>
    </g>
    <g transform="translate(-451.686 -620.686)">
      <g id="Rectangle_4-21" data-name="Rectangle 4" transform="translate(891.686 626.218) rotate(-45)" fill="none" stroke="#8586a5" stroke-width="2" stroke-dasharray="4">
        <rect width="7.823" height="7.823" stroke="none"/>
        <rect x="1" y="1" width="5.823" height="5.823" fill="none"/>
      </g>
    </g>
    <g transform="translate(-429.686 -620.686)">
      <g id="Rectangle_4-22" data-name="Rectangle 4" transform="translate(891.686 626.218) rotate(-45)" fill="none" stroke="#8586a5" stroke-width="2" stroke-dasharray="4">
        <rect width="7.823" height="7.823" stroke="none"/>
        <rect x="1" y="1" width="5.823" height="5.823" fill="none"/>
      </g>
    </g>
    <g transform="translate(-407.686 -620.686)">
      <g id="Rectangle_4-23" data-name="Rectangle 4" transform="translate(891.686 626.218) rotate(-45)" fill="none" stroke="#8586a5" stroke-width="2" stroke-dasharray="4">
        <rect width="7.823" height="7.823" stroke="none"/>
        <rect x="1" y="1" width="5.823" height="5.823" fill="none"/>
      </g>
    </g>
    <g transform="translate(-385.686 -620.686)">
      <g id="Rectangle_4-24" data-name="Rectangle 4" transform="translate(891.686 626.218) rotate(-45)" fill="none" stroke="#8586a5" stroke-width="2" stroke-dasharray="4">
        <rect width="7.823" height="7.823" stroke="none"/>
        <rect x="1" y="1" width="5.823" height="5.823" fill="none"/>
      </g>
    </g>
    <g transform="translate(-363.686 -620.686)">
      <g id="Rectangle_4-25" data-name="Rectangle 4" transform="translate(891.686 626.218) rotate(-45)" fill="none" stroke="#8586a5" stroke-width="2" stroke-dasharray="4">
        <rect width="7.823" height="7.823" stroke="none"/>
        <rect x="1" y="1" width="5.823" height="5.823" fill="none"/>
      </g>
    </g>
    <g transform="translate(-341.686 -620.686)">
      <g id="Rectangle_4-26" data-name="Rectangle 4" transform="translate(891.686 626.218) rotate(-45)" fill="none" stroke="#8586a5" stroke-width="2" stroke-dasharray="4">
        <rect width="7.823" height="7.823" stroke="none"/>
        <rect x="1" y="1" width="5.823" height="5.823" fill="none"/>
      </g>
    </g>
    <g transform="translate(-319.686 -620.686)">
      <g id="Rectangle_4-27" data-name="Rectangle 4" transform="translate(891.686 626.218) rotate(-45)" fill="none" stroke="#8586a5" stroke-width="2" stroke-dasharray="4">
        <rect width="7.823" height="7.823" stroke="none"/>
        <rect x="1" y="1" width="5.823" height="5.823" fill="none"/>
      </g>
    </g>
    <g transform="translate(-297.686 -620.686)">
      <g id="Rectangle_4-28" data-name="Rectangle 4" transform="translate(891.686 626.218) rotate(-45)" fill="none" stroke="#8586a5" stroke-width="2" stroke-dasharray="4">
        <rect width="7.823" height="7.823" stroke="none"/>
        <rect x="1" y="1" width="5.823" height="5.823" fill="none"/>
      </g>
    </g>
    <g transform="translate(-275.686 -620.686)">
      <g id="Rectangle_4-29" data-name="Rectangle 4" transform="translate(891.686 626.218) rotate(-45)" fill="none" stroke="#8586a5" stroke-width="2" stroke-dasharray="4">
        <rect width="7.823" height="7.823" stroke="none"/>
        <rect x="1" y="1" width="5.823" height="5.823" fill="none"/>
      </g>
    </g>
    <g transform="translate(-253.686 -620.686)">
      <g id="Rectangle_4-30" data-name="Rectangle 4" transform="translate(891.686 626.218) rotate(-45)" fill="none" stroke="#8586a5" stroke-width="2" stroke-dasharray="4">
        <rect width="7.823" height="7.823" stroke="none"/>
        <rect x="1" y="1" width="5.823" height="5.823" fill="none"/>
      </g>
    </g>
    <g transform="translate(-231.686 -620.686)">
      <g id="Rectangle_4-31" data-name="Rectangle 4" transform="translate(891.686 626.218) rotate(-45)" fill="none" stroke="#8586a5" stroke-width="2" stroke-dasharray="4">
        <rect width="7.823" height="7.823" stroke="none"/>
        <rect x="1" y="1" width="5.823" height="5.823" fill="none"/>
      </g>
    </g>
    <g transform="translate(-209.686 -620.686)">
      <g id="Rectangle_4-32" data-name="Rectangle 4" transform="translate(891.686 626.218) rotate(-45)" fill="none" stroke="#8586a5" stroke-width="2" stroke-dasharray="4">
        <rect width="7.823" height="7.823" stroke="none"/>
        <rect x="1" y="1" width="5.823" height="5.823" fill="none"/>
      </g>
    </g>
    <g transform="translate(-187.686 -620.686)">
      <g id="Rectangle_4-33" data-name="Rectangle 4" transform="translate(891.686 626.218) rotate(-45)" fill="none" stroke="#8586a5" stroke-width="2" stroke-dasharray="4">
        <rect width="7.823" height="7.823" stroke="none"/>
        <rect x="1" y="1" width="5.823" height="5.823" fill="none"/>
      </g>
    </g>
    <g transform="translate(-165.686 -620.686)">
      <g id="Rectangle_4-34" data-name="Rectangle 4" transform="translate(891.686 626.218) rotate(-45)" fill="none" stroke="#8586a5" stroke-width="2" stroke-dasharray="4">
        <rect width="7.823" height="7.823" stroke="none"/>
        <rect x="1" y="1" width="5.823" height="5.823" fill="none"/>
      </g>
    </g>
    <g transform="translate(-143.686 -620.686)">
      <g id="Rectangle_4-35" data-name="Rectangle 4" transform="translate(891.686 626.218) rotate(-45)" fill="none" stroke="#8586a5" stroke-width="2" stroke-dasharray="4">
        <rect width="7.823" height="7.823" stroke="none"/>
        <rect x="1" y="1" width="5.823" height="5.823" fill="none"/>
      </g>
    </g>
    <g transform="translate(-121.686 -620.686)">
      <g id="Rectangle_4-36" data-name="Rectangle 4" transform="translate(891.686 626.218) rotate(-45)" fill="none" stroke="#8586a5" stroke-width="2" stroke-dasharray="4">
        <rect width="7.823" height="7.823" stroke="none"/>
        <rect x="1" y="1" width="5.823" height="5.823" fill="none"/>
      </g>
    </g>
    <g transform="translate(-99.686 -620.686)">
      <g id="Rectangle_4-37" data-name="Rectangle 4" transform="translate(891.686 626.218) rotate(-45)" fill="none" stroke="#8586a5" stroke-width="2" stroke-dasharray="4">
        <rect width="7.823" height="7.823" stroke="none"/>
        <rect x="1" y="1" width="5.823" height="5.823" fill="none"/>
      </g>
    </g>
    <g transform="translate(-77.686 -620.686)">
      <g id="Rectangle_4-38" data-name="Rectangle 4" transform="translate(891.686 626.218) rotate(-45)" fill="none" stroke="#8586a5" stroke-width="2" stroke-dasharray="4">
        <rect width="7.823" height="7.823" stroke="none"/>
        <rect x="1" y="1" width="5.823" height="5.823" fill="none"/>
      </g>
    </g>
    <g transform="translate(-55.686 -620.686)">
      <g id="Rectangle_4-39" data-name="Rectangle 4" transform="translate(891.686 626.218) rotate(-45)" fill="none" stroke="#8586a5" stroke-width="2" stroke-dasharray="4">
        <rect width="7.823" height="7.823" stroke="none"/>
        <rect x="1" y="1" width="5.823" height="5.823" fill="none"/>
      </g>
    </g>
    <g transform="translate(-33.686 -620.686)">
      <g id="Rectangle_4-40" data-name="Rectangle 4" transform="translate(891.686 626.218) rotate(-45)" fill="none" stroke="#8586a5" stroke-width="2" stroke-dasharray="4">
        <rect width="7.823" height="7.823" stroke="none"/>
        <rect x="1" y="1" width="5.823" height="5.823" fill="none"/>
      </g>
    </g>
    <g transform="translate(-11.686 -620.686)">
      <g id="Rectangle_4-41" data-name="Rectangle 4" transform="translate(891.686 626.218) rotate(-45)" fill="none" stroke="#8586a5" stroke-width="2" stroke-dasharray="4">
        <rect width="7.823" height="7.823" stroke="none"/>
        <rect x="1" y="1" width="5.823" height="5.823" fill="none"/>
      </g>
    </g>
    <g transform="translate(10.314 -620.686)">
      <g id="Rectangle_4-42" data-name="Rectangle 4" transform="translate(891.686 626.218) rotate(-45)" fill="none" stroke="#8586a5" stroke-width="2" stroke-dasharray="4">
        <rect width="7.823" height="7.823" stroke="none"/>
        <rect x="1" y="1" width="5.823" height="5.823" fill="none"/>
      </g>
    </g>
    <g transform="translate(32.314 -620.686)">
      <g id="Rectangle_4-43" data-name="Rectangle 4" transform="translate(891.686 626.218) rotate(-45)" fill="none" stroke="#8586a5" stroke-width="2" stroke-dasharray="4">
        <rect width="7.823" height="7.823" stroke="none"/>
        <rect x="1" y="1" width="5.823" height="5.823" fill="none"/>
      </g>
    </g>
    <g transform="translate(54.314 -620.686)">
      <g id="Rectangle_4-44" data-name="Rectangle 4" transform="translate(891.686 626.218) rotate(-45)" fill="none" stroke="#8586a5" stroke-width="2" stroke-dasharray="4">
        <rect width="7.823" height="7.823" stroke="none"/>
        <rect x="1" y="1" width="5.823" height="5.823" fill="none"/>
      </g>
    </g>
    <g transform="translate(76.314 -620.686)">
      <g id="Rectangle_4-45" data-name="Rectangle 4" transform="translate(891.686 626.218) rotate(-45)" fill="none" stroke="#8586a5" stroke-width="2" stroke-dasharray="4">
        <rect width="7.823" height="7.823" stroke="none"/>
        <rect x="1" y="1" width="5.823" height="5.823" fill="none"/>
      </g>
    </g>
    <g transform="translate(98.314 -620.686)">
      <g id="Rectangle_4-46" data-name="Rectangle 4" transform="translate(891.686 626.218) rotate(-45)" fill="none" stroke="#8586a5" stroke-width="2" stroke-dasharray="4">
        <rect width="7.823" height="7.823" stroke="none"/>
        <rect x="1" y="1" width="5.823" height="5.823" fill="none"/>
      </g>
    </g>
  </g>
</svg>
