<?xml version="1.0" encoding="utf-8"?>
<!-- Generator: Adobe Illustrator 25.2.1, SVG Export Plug-In . SVG Version: 6.00 Build 0)  -->
<svg version="1.1" id="Layer_1" xmlns="http://www.w3.org/2000/svg" xmlns:xlink="http://www.w3.org/1999/xlink" x="0px" y="0px"
	 viewBox="0 0 200 200" style="enable-background:new 0 0 200 200;" xml:space="preserve">
<style type="text/css">
	.st0{fill:#A6A8AB;}
	.st1{fill:#B9B9BA;}
</style>
<path class="st0" d="M197.29,18.96c0,18.23,0,36.47,0,54.7c0,29.04,0,58.09,0,87.13c0,6.64,0,13.29,0,19.93
	c0.26-0.19,0.52-0.39,0.78-0.58c-9.64,0.19-17.47,7.76-17.66,17.46c0.26-0.19,0.52-0.39,0.78-0.58c-18.23,0-36.47,0-54.7,0
	c-29.04,0-58.09,0-87.13,0c-6.64,0-13.29,0-19.93,0c0.22,0.16,0.44,0.32,0.66,0.48c-0.19-9.74-7.87-17.17-17.54-17.36
	c0.22,0.16,0.44,0.32,0.66,0.48c0-18.23,0-36.47,0-54.7c0-29.04,0-58.09,0-87.13c0-6.64,0-13.29,0-19.93
	c-0.26,0.19-0.52,0.39-0.78,0.58c9.64-0.19,17.47-7.76,17.66-17.46c-0.26,0.19-0.52,0.39-0.78,0.58c18.23,0,36.47,0,54.7,0
	c29.04,0,58.09,0,87.13,0c6.64,0,13.29,0,19.93,0c-0.22-0.16-0.44-0.32-0.66-0.48c0.19,9.74,7.87,17.17,17.54,17.36
	c0.82,0.02,1.08-1.04,0.12-1.06c-9-0.18-16.05-7.47-16.22-16.4c-0.01-0.37-0.34-0.48-0.66-0.48c-18.23,0-36.47,0-54.7,0
	c-29.04,0-58.09,0-87.13,0c-6.64,0-13.29,0-19.93,0c-0.29,0-0.77,0.24-0.78,0.58c-0.18,8.97-7.07,16.12-16.1,16.3
	c-0.28,0.01-0.78,0.24-0.78,0.58c0,18.23,0,36.47,0,54.7c0,29.04,0,58.09,0,87.13c0,6.64,0,13.29,0,19.93
	c0,0.37,0.34,0.47,0.66,0.48c9,0.18,16.05,7.47,16.22,16.4c0.01,0.37,0.34,0.48,0.66,0.48c18.23,0,36.47,0,54.7,0
	c29.04,0,58.09,0,87.13,0c6.64,0,13.29,0,19.93,0c0.29,0,0.77-0.24,0.78-0.58c0.18-8.97,7.07-16.12,16.1-16.3
	c0.28-0.01,0.78-0.24,0.78-0.58c0-18.23,0-36.47,0-54.7c0-29.04,0-58.09,0-87.13c0-6.64,0-13.29,0-19.93
	C198.73,18.1,197.29,18.31,197.29,18.96z"/>
<path class="st0" d="M192.11,24.75c-0.01-0.01-0.01-0.02-0.02-0.04c-0.03-0.05-0.06-0.1-0.1-0.14c-0.03-0.04-0.07-0.08-0.11-0.12
	c-0.02-0.02-0.05-0.04-0.07-0.06c-0.06-0.04-0.13-0.08-0.2-0.11c-0.02-0.01-0.04-0.02-0.07-0.03c-0.05-0.02-0.1-0.03-0.15-0.05
	c-0.27-0.08-0.58-0.12-0.9-0.11c-7.66-0.37-13.61-6.7-13.77-14.37c-0.02-0.73-0.63-1.11-1.34-1.11c-16.85,0-33.71,0-50.56,0
	c-26.62,0-53.25,0-79.87,0c-6.08,0-12.16,0-18.24,0c-0.79,0-2.9,0.39-2.93,1.56c-0.15,7.07-5.08,13.79-12.59,13.95
	c-0.77,0.02-2.93,0.38-2.93,1.56c0,16.85,0,33.71,0,50.56c0,26.62,0,53.25,0,79.87c0,6.08,0,12.16,0,18.24
	c0,0.74,0.64,1.1,1.34,1.11c7.85,0.17,14,6.59,14.17,14.4c0.02,0.73,0.63,1.11,1.34,1.11c16.85,0,33.71,0,50.56,0
	c26.62,0,53.25,0,79.87,0c6.08,0,12.16,0,18.24,0c0.79,0,2.9-0.39,2.93-1.56c0.15-7.07,5.08-13.79,12.59-13.95
	c0.77-0.02,2.93-0.38,2.93-1.56c0-16.85,0-33.71,0-50.56c0-26.62,0-53.25,0-79.87c0-6.08,0-12.16,0-18.24
	C192.24,25.04,192.19,24.88,192.11,24.75z M172.57,188.3c-15.92,0-31.83,0-47.75,0c-26.62,0-53.25,0-79.87,0
	c-5.66,0-11.32,0-16.97,0c-0.7-8.36-7.13-14.64-15.44-15.42c0-16.51,0-33.02,0-49.54c0-26.62,0-53.25,0-79.87
	c0-5.65,0-11.31,0-16.96c7.87-1.3,14.48-7.05,15.4-15.23c15.92,0,31.83,0,47.75,0c26.62,0,53.25,0,79.87,0c5.66,0,11.32,0,16.97,0
	c0.7,8.36,7.13,14.64,15.44,15.42c0,16.51,0,33.02,0,49.54c0,26.62,0,53.25,0,79.87c0,5.65,0,11.31,0,16.96
	C180.09,174.37,173.48,180.12,172.57,188.3z"/>
<g>
	<path class="st1" d="M69.08,149.85c-1.57,0-3.44-0.8-5.06-1.93c-2.72-1.9-4.79-4.8-3.27-6.96l41.44-59.18
		c0.61-0.88,0.53-2.19,0.45-3.58c-0.1-1.58-0.21-3.38,0.8-4.82l19.26-27.5c0.83-1.18,3.48-1.65,4.66-0.82
		c0.8,0.56,1.08,1.73,1.16,2.21c0.08,0.48,0.22,1.67-0.34,2.46L114.3,69.54c0.05,0.02,0.29,0.19,0.42,0.19c0,0,0.01,0,0.01,0
		l13.8-19.78c0.83-1.18,3.48-1.65,4.67-0.82c1.18,0.83,1.65,3.49,0.83,4.67l-13.88,19.82c0.05,0.02,0.3,0.18,0.43,0.19l13.8-19.78
		c0.82-1.18,3.48-1.65,4.66-0.82c1.18,0.83,1.65,3.49,0.83,4.67h0l-19.26,27.51c-1.01,1.44-2.73,1.95-4.26,2.4
		c-1.33,0.39-2.59,0.76-3.21,1.64l-41.44,59.18C71.07,149.48,70.14,149.85,69.08,149.85z M125.83,46.58c-0.53,0-1.34,0.19-1.54,0.42
		L105.03,74.5c-0.61,0.88-0.53,2.19-0.45,3.58c0.1,1.58,0.21,3.38-0.8,4.82l-41.44,59.18c-0.34,0.48-0.04,1.19,0.27,1.71
		c0.51,0.84,1.43,1.76,2.52,2.53c2.13,1.49,4.34,2.02,4.93,1.17l41.44-59.18c1.01-1.44,2.73-1.95,4.26-2.4
		c1.33-0.39,2.59-0.76,3.21-1.64l19.25-27.5c0.19-0.36-0.04-1.69-0.35-1.95c-0.33-0.19-1.67,0.05-1.94,0.35l-13.88,19.82
		c-0.39,0.56-1,0.85-1.7,0.78c-0.82-0.07-1.64-0.65-2-1.4c-0.29-0.63-0.24-1.31,0.15-1.87l13.88-19.82
		c0.19-0.35-0.05-1.68-0.35-1.95c-0.34-0.18-1.67,0.05-1.94,0.36L116.24,70.9c-0.63,0.9-1.87,1.04-2.87,0.34
		c-1.01-0.71-1.3-1.92-0.67-2.82l13.88-19.83c0.19-0.35-0.04-1.68-0.35-1.95C126.14,46.6,126,46.58,125.83,46.58z M138.24,56.76
		L138.24,56.76L138.24,56.76z"/>
	<path class="st1" d="M91.88,99.91l-2.87-4.1c-0.03,0.03-0.46,0.35-0.72,0.54c-0.65,0.49-1.4,1.04-2.27,0.89
		c-0.33-0.05-0.81-0.24-1.21-0.81L64.12,66.89c-3.37-4.82-3.03-15.17,1.94-18.77c1.11-0.8,2.33-1.12,3.55-0.92
		c1.21,0.2,2.32,0.94,3.12,2.08l27.3,38.99L91.88,99.91z M89.12,93.86c0.09,0,0.19,0.01,0.28,0.02c0.33,0.05,0.81,0.24,1.21,0.81
		l1.27,1.81l5.76-8.22L71.12,50.41c-0.5-0.71-1.13-1.15-1.84-1.27c-0.68-0.11-1.4,0.08-2.07,0.57c-4,2.89-4.29,12.05-1.48,16.06
		l20.69,29.54c0.03-0.03,0.46-0.35,0.72-0.54C87.71,94.35,88.36,93.86,89.12,93.86z"/>
	<path class="st1" d="M128.65,149.92c-1.14,0-2.06-0.43-2.63-1.23l-28.39-40.55l8.14-11.63l31.18,44.53c0.63,0.9,0.67,2.07,0.1,3.28
		c-1.22,2.62-5.1,5.34-7.98,5.59C128.93,149.91,128.79,149.92,128.65,149.92z M100.02,108.14l27.61,39.42
		c0.22,0.31,0.65,0.45,1.27,0.39c2.18-0.19,5.46-2.49,6.38-4.47c0.27-0.57,0.29-1.02,0.07-1.33l-29.58-42.24L100.02,108.14z"/>
</g>
</svg>
